<svg xmlns="http://www.w3.org/2000/svg" xmlns:xlink="http://www.w3.org/1999/xlink" width="500" zoomAndPan="magnify" viewBox="0 0 375 374.999991" height="500" preserveAspectRatio="xMidYMid meet" version="1.0"><defs><clipPath id="26595ac445"><path d="M 155.960938 187.5 L 159.78125 187.5 L 159.78125 191.316406 L 155.960938 191.316406 Z M 155.960938 187.5 " clip-rule="nonzero"/></clipPath><clipPath id="49fe69e0c8"><path d="M 157.871094 187.5 C 156.816406 187.5 155.960938 188.355469 155.960938 189.410156 C 155.960938 190.460938 156.816406 191.316406 157.871094 191.316406 C 158.925781 191.316406 159.78125 190.460938 159.78125 189.410156 C 159.78125 188.355469 158.925781 187.5 157.871094 187.5 Z M 157.871094 187.5 " clip-rule="nonzero"/></clipPath><clipPath id="7722a5effa"><path d="M 0.960938 0.5 L 4.78125 0.5 L 4.78125 4.316406 L 0.960938 4.316406 Z M 0.960938 0.5 " clip-rule="nonzero"/></clipPath><clipPath id="92f09406b9"><path d="M 2.871094 0.5 C 1.816406 0.5 0.960938 1.355469 0.960938 2.410156 C 0.960938 3.460938 1.816406 4.316406 2.871094 4.316406 C 3.925781 4.316406 4.78125 3.460938 4.78125 2.410156 C 4.78125 1.355469 3.925781 0.5 2.871094 0.5 Z M 2.871094 0.5 " clip-rule="nonzero"/></clipPath><clipPath id="e25be59f99"><rect x="0" width="5" y="0" height="5"/></clipPath><clipPath id="bb213cb625"><path d="M 2.742188 2.742188 L 372 2.742188 L 372 372.492188 L 2.742188 372.492188 Z M 2.742188 2.742188 " clip-rule="nonzero"/></clipPath></defs><g clip-path="url(#26595ac445)"><g clip-path="url(#49fe69e0c8)"><g transform="matrix(1, 0, 0, 1, 155, 187)"><g clip-path="url(#e25be59f99)"><g clip-path="url(#7722a5effa)"><g clip-path="url(#92f09406b9)"><path fill="#ffffff" d="M 0.960938 0.5 L 4.78125 0.5 L 4.78125 4.316406 L 0.960938 4.316406 Z M 0.960938 0.5 " fill-opacity="1" fill-rule="nonzero"/></g></g></g></g></g></g><g clip-path="url(#bb213cb625)"><path fill="#ffffff" d="M 182.246094 11.273438 C 279.410156 8.550781 360.371094 85.113281 363.0625 182.3125 C 363.128906 184.019531 363.160156 185.722656 363.160156 187.429688 C 363.195312 284.660156 284.398438 363.488281 187.199219 363.519531 C 90 363.585938 11.175781 284.792969 11.140625 187.59375 C 11.140625 187.527344 11.140625 187.496094 11.140625 187.429688 C 11.011719 92.035156 86.886719 13.898438 182.246094 11.273438 Z M 182.050781 2.808594 C 82.128906 5.566406 2.578125 87.476562 2.742188 187.429688 C 2.515625 289.285156 84.882812 372.019531 186.707031 372.246094 C 288.5625 372.476562 371.296875 290.105469 371.527344 188.28125 C 371.527344 187.988281 371.527344 187.726562 371.527344 187.429688 C 371.691406 85.605469 289.285156 2.90625 187.429688 2.742188 C 185.660156 2.742188 183.855469 2.777344 182.050781 2.808594 " fill-opacity="1" fill-rule="nonzero"/></g><path fill="#ffffff" d="M 211.902344 162.792969 L 211.902344 108.667969 C 211.867188 94.332031 200.191406 82.71875 185.855469 82.785156 C 171.550781 82.816406 159.972656 94.398438 159.941406 108.667969 L 159.941406 162.792969 L 105.8125 162.792969 C 91.476562 162.859375 79.898438 174.539062 79.929688 188.875 C 79.996094 203.144531 91.542969 214.691406 105.8125 214.753906 L 159.941406 214.753906 L 159.941406 268.914062 C 159.972656 283.25 171.652344 294.828125 185.988281 294.796875 C 200.289062 294.730469 211.867188 283.183594 211.902344 268.914062 L 211.902344 214.753906 L 266.027344 214.753906 C 280.363281 214.691406 291.976562 203.011719 291.910156 188.675781 C 291.84375 174.40625 280.296875 162.859375 266.027344 162.792969 L 211.902344 162.792969 " fill-opacity="1" fill-rule="nonzero"/><path fill="#ffffff" d="M 203.503906 171.191406 L 203.503906 108.667969 C 203.503906 98.957031 195.597656 91.117188 185.855469 91.117188 C 176.210938 91.148438 168.371094 98.988281 168.335938 108.667969 L 168.335938 171.191406 L 105.8125 171.191406 C 96.101562 171.222656 88.230469 179.128906 88.261719 188.839844 C 88.296875 198.515625 96.136719 206.359375 105.8125 206.359375 L 168.335938 206.359375 L 168.335938 268.914062 C 168.371094 278.59375 176.242188 286.464844 185.988281 286.433594 C 195.628906 286.398438 203.503906 278.558594 203.503906 268.914062 L 203.503906 206.359375 L 266.027344 206.359375 C 275.738281 206.359375 283.609375 198.453125 283.578125 188.742188 C 283.546875 179.066406 275.707031 171.222656 266.027344 171.191406 L 203.503906 171.191406 " fill-opacity="1" fill-rule="nonzero"/></svg>