<svg xmlns="http://www.w3.org/2000/svg" xmlns:xlink="http://www.w3.org/1999/xlink" width="200" zoomAndPan="magnify" viewBox="0 0 150 149.999998" height="200" preserveAspectRatio="xMidYMid meet" version="1.0"><defs><clipPath id="48f2c763f7"><path d="M 2.03125 2.03125 L 68 2.03125 L 68 68 L 2.03125 68 Z M 2.03125 2.03125 " clip-rule="nonzero"/></clipPath><clipPath id="24ec33d372"><path d="M 82 2.03125 L 148 2.03125 L 148 68 L 82 68 Z M 82 2.03125 " clip-rule="nonzero"/></clipPath><clipPath id="793e4bdf9e"><path d="M 2.03125 82 L 68 82 L 68 148 L 2.03125 148 Z M 2.03125 82 " clip-rule="nonzero"/></clipPath></defs><g clip-path="url(#48f2c763f7)"><path fill="#f5f5f5" d="M 2.03125 6.898438 L 2.03125 62.882812 C 2.03125 65.570312 4.210938 67.746094 6.898438 67.746094 L 62.882812 67.746094 C 65.566406 67.746094 67.746094 65.570312 67.746094 62.882812 L 67.746094 6.898438 C 67.746094 4.207031 65.566406 2.03125 62.882812 2.03125 L 6.898438 2.03125 C 4.210938 2.03125 2.03125 4.207031 2.03125 6.898438 Z M 11.761719 11.761719 L 58.015625 11.761719 L 58.015625 58.015625 L 11.761719 58.015625 Z M 11.761719 11.761719 " fill-opacity="1" fill-rule="nonzero"/></g><g clip-path="url(#24ec33d372)"><path fill="#f5f5f5" d="M 143.101562 2.03125 L 87.117188 2.03125 C 84.433594 2.03125 82.253906 4.207031 82.253906 6.898438 L 82.253906 62.882812 C 82.253906 65.570312 84.433594 67.746094 87.117188 67.746094 L 143.101562 67.746094 C 145.789062 67.746094 147.964844 65.570312 147.964844 62.882812 L 147.964844 6.898438 C 147.964844 4.207031 145.789062 2.03125 143.101562 2.03125 Z M 138.238281 58.015625 L 91.984375 58.015625 L 91.984375 11.761719 L 138.238281 11.761719 Z M 138.238281 58.015625 " fill-opacity="1" fill-rule="nonzero"/></g><g clip-path="url(#793e4bdf9e)"><path fill="#f5f5f5" d="M 67.746094 143.101562 L 67.746094 87.117188 C 67.746094 84.429688 65.566406 82.253906 62.882812 82.253906 L 6.898438 82.253906 C 4.210938 82.253906 2.03125 84.429688 2.03125 87.117188 L 2.03125 143.101562 C 2.03125 145.789062 4.210938 147.964844 6.898438 147.964844 L 62.882812 147.964844 C 65.566406 147.964844 67.746094 145.789062 67.746094 143.101562 Z M 58.015625 138.238281 L 11.761719 138.238281 L 11.761719 91.984375 L 58.015625 91.984375 Z M 58.015625 138.238281 " fill-opacity="1" fill-rule="nonzero"/></g><path fill="#f5f5f5" d="M 143.101562 82.253906 L 87.117188 82.253906 C 84.433594 82.253906 82.253906 84.429688 82.253906 87.117188 L 82.253906 143.101562 C 82.253906 145.789062 84.433594 147.964844 87.117188 147.964844 L 143.101562 147.964844 C 145.789062 147.964844 147.964844 145.789062 147.964844 143.101562 L 147.964844 87.117188 C 147.964844 84.429688 145.789062 82.253906 143.101562 82.253906 Z M 138.238281 138.238281 L 91.984375 138.238281 L 91.984375 91.984375 L 138.238281 91.984375 Z M 138.238281 138.238281 " fill-opacity="1" fill-rule="nonzero"/></svg>