<svg xmlns="http://www.w3.org/2000/svg" xmlns:xlink="http://www.w3.org/1999/xlink" width="500" zoomAndPan="magnify" viewBox="0 0 375 374.999991" height="500" preserveAspectRatio="xMidYMid meet" version="1.0"><defs><clipPath id="0324e741bf"><path d="M 2.457031 2.457031 L 170 2.457031 L 170 170 L 2.457031 170 Z M 2.457031 2.457031 " clip-rule="nonzero"/></clipPath><clipPath id="6f63c7efe0"><path d="M 205 2.457031 L 372.207031 2.457031 L 372.207031 170 L 205 170 Z M 205 2.457031 " clip-rule="nonzero"/></clipPath><clipPath id="d068b2ff93"><path d="M 2.457031 205 L 170 205 L 170 372.207031 L 2.457031 372.207031 Z M 2.457031 205 " clip-rule="nonzero"/></clipPath><clipPath id="7b580a221e"><path d="M 205 205 L 372.207031 205 L 372.207031 372.207031 L 205 372.207031 Z M 205 205 " clip-rule="nonzero"/></clipPath></defs><g clip-path="url(#0324e741bf)"><path fill="#ffffff" d="M 2.457031 14.792969 L 2.457031 156.765625 C 2.457031 163.582031 7.980469 169.101562 14.792969 169.101562 L 156.765625 169.101562 C 163.578125 169.101562 169.101562 163.582031 169.101562 156.765625 L 169.101562 14.792969 C 169.101562 7.972656 163.578125 2.457031 156.765625 2.457031 L 14.792969 2.457031 C 7.980469 2.457031 2.457031 7.972656 2.457031 14.792969 Z M 27.128906 27.128906 L 144.429688 27.128906 L 144.429688 144.429688 L 27.128906 144.429688 Z M 27.128906 27.128906 " fill-opacity="1" fill-rule="nonzero"/></g><g clip-path="url(#6f63c7efe0)"><path fill="#ffffff" d="M 360.199219 2.457031 L 218.226562 2.457031 C 211.414062 2.457031 205.890625 7.972656 205.890625 14.792969 L 205.890625 156.765625 C 205.890625 163.582031 211.414062 169.101562 218.226562 169.101562 L 360.199219 169.101562 C 367.011719 169.101562 372.535156 163.582031 372.535156 156.765625 L 372.535156 14.792969 C 372.535156 7.972656 367.011719 2.457031 360.199219 2.457031 Z M 347.863281 144.429688 L 230.5625 144.429688 L 230.5625 27.128906 L 347.863281 27.128906 Z M 347.863281 144.429688 " fill-opacity="1" fill-rule="nonzero"/></g><g clip-path="url(#d068b2ff93)"><path fill="#ffffff" d="M 169.101562 360.199219 L 169.101562 218.226562 C 169.101562 211.410156 163.578125 205.890625 156.765625 205.890625 L 14.792969 205.890625 C 7.980469 205.890625 2.457031 211.410156 2.457031 218.226562 L 2.457031 360.199219 C 2.457031 367.015625 7.980469 372.535156 14.792969 372.535156 L 156.765625 372.535156 C 163.578125 372.535156 169.101562 367.015625 169.101562 360.199219 Z M 144.429688 347.863281 L 27.128906 347.863281 L 27.128906 230.5625 L 144.429688 230.5625 Z M 144.429688 347.863281 " fill-opacity="1" fill-rule="nonzero"/></g><g clip-path="url(#7b580a221e)"><path fill="#ffffff" d="M 360.199219 205.890625 L 218.226562 205.890625 C 211.414062 205.890625 205.890625 211.410156 205.890625 218.226562 L 205.890625 360.199219 C 205.890625 367.015625 211.414062 372.535156 218.226562 372.535156 L 360.199219 372.535156 C 367.011719 372.535156 372.535156 367.015625 372.535156 360.199219 L 372.535156 218.226562 C 372.535156 211.410156 367.011719 205.890625 360.199219 205.890625 Z M 347.863281 347.863281 L 230.5625 347.863281 L 230.5625 230.5625 L 347.863281 230.5625 Z M 347.863281 347.863281 " fill-opacity="1" fill-rule="nonzero"/></g></svg>