<svg xmlns="http://www.w3.org/2000/svg" xmlns:xlink="http://www.w3.org/1999/xlink" width="500" zoomAndPan="magnify" viewBox="0 0 375 374.999991" height="500" preserveAspectRatio="xMidYMid meet" version="1.0"><defs><clipPath id="6365d98474"><path d="M 3.171875 121 L 254 121 L 254 372 L 3.171875 372 Z M 3.171875 121 " clip-rule="nonzero"/></clipPath><clipPath id="6ea95b3de5"><path d="M 209 3.171875 L 372 3.171875 L 372 166 L 209 166 Z M 209 3.171875 " clip-rule="nonzero"/></clipPath><clipPath id="f34bea1229"><path d="M 214.648438 90.21875 L 218.464844 90.21875 L 218.464844 94.035156 L 214.648438 94.035156 Z M 214.648438 90.21875 " clip-rule="nonzero"/></clipPath><clipPath id="a5f34c2907"><path d="M 216.554688 90.21875 C 215.5 90.21875 214.648438 91.074219 214.648438 92.128906 C 214.648438 93.179688 215.5 94.035156 216.554688 94.035156 C 217.609375 94.035156 218.464844 93.179688 218.464844 92.128906 C 218.464844 91.074219 217.609375 90.21875 216.554688 90.21875 Z M 216.554688 90.21875 " clip-rule="nonzero"/></clipPath><clipPath id="073a8da4bf"><path d="M 0.648438 0.21875 L 4.464844 0.21875 L 4.464844 4.035156 L 0.648438 4.035156 Z M 0.648438 0.21875 " clip-rule="nonzero"/></clipPath><clipPath id="0b53c07287"><path d="M 2.554688 0.21875 C 1.5 0.21875 0.648438 1.074219 0.648438 2.128906 C 0.648438 3.179688 1.5 4.035156 2.554688 4.035156 C 3.609375 4.035156 4.464844 3.179688 4.464844 2.128906 C 4.464844 1.074219 3.609375 0.21875 2.554688 0.21875 Z M 2.554688 0.21875 " clip-rule="nonzero"/></clipPath><clipPath id="94fb4f530d"><rect x="0" width="5" y="0" height="5"/></clipPath></defs><g clip-path="url(#6365d98474)"><path fill="#ffffff" d="M 247.6875 219.539062 L 229.773438 216.589844 C 227.667969 209.453125 224.835938 202.613281 221.277344 196.078125 L 231.824219 181.332031 C 232.074219 180.980469 232.292969 180.609375 232.480469 180.21875 C 232.664062 179.828125 232.816406 179.421875 232.929688 179.007812 C 233.046875 178.589844 233.125 178.164062 233.164062 177.734375 C 233.203125 177.304688 233.207031 176.871094 233.171875 176.441406 C 233.136719 176.007812 233.0625 175.585938 232.953125 175.167969 C 232.84375 174.746094 232.695312 174.34375 232.515625 173.949219 C 232.332031 173.558594 232.117188 173.183594 231.871094 172.828125 C 231.625 172.472656 231.347656 172.140625 231.039062 171.835938 L 203.230469 144.023438 C 202.925781 143.71875 202.59375 143.441406 202.238281 143.195312 C 201.882812 142.949219 201.507812 142.734375 201.117188 142.550781 C 200.722656 142.371094 200.316406 142.222656 199.898438 142.113281 C 199.480469 142.003906 199.054688 141.929688 198.625 141.894531 C 198.195312 141.859375 197.761719 141.859375 197.332031 141.902344 C 196.902344 141.941406 196.476562 142.019531 196.058594 142.136719 C 195.640625 142.25 195.238281 142.402344 194.847656 142.585938 C 194.457031 142.773438 194.085938 142.992188 193.734375 143.242188 L 178.988281 153.785156 C 172.449219 150.230469 165.613281 147.398438 158.476562 145.292969 L 155.527344 127.378906 C 155.457031 126.949219 155.347656 126.53125 155.203125 126.121094 C 155.058594 125.714844 154.878906 125.320312 154.664062 124.945312 C 154.449219 124.566406 154.203125 124.210938 153.929688 123.878906 C 153.652344 123.542969 153.347656 123.238281 153.015625 122.957031 C 152.683594 122.675781 152.332031 122.429688 151.957031 122.210938 C 151.582031 121.992188 151.191406 121.808594 150.785156 121.660156 C 150.378906 121.511719 149.960938 121.398438 149.535156 121.324219 C 149.105469 121.25 148.675781 121.210938 148.242188 121.214844 L 108.855469 121.214844 C 108.421875 121.210938 107.992188 121.25 107.566406 121.324219 C 107.136719 121.398438 106.722656 121.511719 106.3125 121.660156 C 105.90625 121.808594 105.515625 121.992188 105.140625 122.210938 C 104.765625 122.429688 104.414062 122.675781 104.082031 122.957031 C 103.75 123.238281 103.449219 123.542969 103.171875 123.878906 C 102.894531 124.210938 102.648438 124.566406 102.433594 124.945312 C 102.21875 125.320312 102.039062 125.714844 101.894531 126.121094 C 101.75 126.53125 101.644531 126.949219 101.570312 127.378906 L 98.621094 145.292969 C 91.484375 147.398438 84.648438 150.230469 78.109375 153.785156 L 63.363281 143.242188 C 63.011719 142.992188 62.640625 142.773438 62.25 142.585938 C 61.859375 142.402344 61.457031 142.25 61.039062 142.136719 C 60.621094 142.019531 60.199219 141.941406 59.765625 141.902344 C 59.335938 141.859375 58.90625 141.859375 58.472656 141.894531 C 58.042969 141.929688 57.617188 142.003906 57.199219 142.113281 C 56.78125 142.222656 56.375 142.371094 55.980469 142.550781 C 55.589844 142.734375 55.214844 142.949219 54.859375 143.195312 C 54.503906 143.441406 54.175781 143.71875 53.867188 144.023438 L 25.984375 171.761719 C 25.679688 172.070312 25.402344 172.398438 25.152344 172.753906 C 24.90625 173.109375 24.691406 173.484375 24.511719 173.875 C 24.328125 174.269531 24.183594 174.675781 24.070312 175.09375 C 23.960938 175.511719 23.886719 175.9375 23.851562 176.367188 C 23.816406 176.796875 23.820312 177.230469 23.859375 177.660156 C 23.902344 178.089844 23.980469 178.515625 24.09375 178.933594 C 24.207031 179.351562 24.359375 179.753906 24.546875 180.144531 C 24.730469 180.535156 24.949219 180.90625 25.203125 181.257812 L 35.746094 196.003906 C 32.1875 202.542969 29.359375 209.378906 27.253906 216.515625 L 9.335938 219.464844 C 8.90625 219.535156 8.488281 219.644531 8.082031 219.789062 C 7.671875 219.933594 7.28125 220.113281 6.902344 220.328125 C 6.527344 220.542969 6.171875 220.789062 5.835938 221.0625 C 5.503906 221.339844 5.195312 221.644531 4.917969 221.976562 C 4.636719 222.308594 4.386719 222.660156 4.167969 223.035156 C 3.953125 223.410156 3.769531 223.800781 3.621094 224.207031 C 3.472656 224.613281 3.359375 225.03125 3.285156 225.460938 C 3.207031 225.886719 3.171875 226.316406 3.171875 226.75 L 3.171875 266.0625 C 3.171875 266.496094 3.207031 266.925781 3.285156 267.351562 C 3.359375 267.78125 3.472656 268.199219 3.621094 268.605469 C 3.769531 269.011719 3.953125 269.402344 4.167969 269.777344 C 4.386719 270.152344 4.636719 270.503906 4.917969 270.835938 C 5.195312 271.167969 5.503906 271.472656 5.835938 271.75 C 6.171875 272.023438 6.527344 272.269531 6.902344 272.484375 C 7.28125 272.699219 7.671875 272.878906 8.082031 273.023438 C 8.488281 273.167969 8.90625 273.277344 9.335938 273.347656 L 27.253906 276.296875 C 29.359375 283.433594 32.1875 290.269531 35.746094 296.808594 L 25.203125 311.554688 C 24.949219 311.90625 24.730469 312.277344 24.546875 312.667969 C 24.359375 313.058594 24.207031 313.460938 24.09375 313.878906 C 23.980469 314.296875 23.902344 314.722656 23.859375 315.152344 C 23.820312 315.582031 23.816406 316.015625 23.851562 316.445312 C 23.886719 316.875 23.960938 317.300781 24.070312 317.71875 C 24.183594 318.136719 24.328125 318.542969 24.511719 318.9375 C 24.691406 319.328125 24.90625 319.703125 25.152344 320.058594 C 25.402344 320.414062 25.679688 320.742188 25.984375 321.050781 L 53.792969 348.859375 C 54.101562 349.167969 54.433594 349.445312 54.785156 349.691406 C 55.140625 349.9375 55.515625 350.152344 55.910156 350.335938 C 56.300781 350.515625 56.707031 350.664062 57.125 350.773438 C 57.542969 350.882812 57.96875 350.957031 58.398438 350.992188 C 58.832031 351.027344 59.261719 351.023438 59.691406 350.984375 C 60.125 350.945312 60.546875 350.867188 60.964844 350.75 C 61.382812 350.636719 61.785156 350.484375 62.175781 350.300781 C 62.566406 350.113281 62.9375 349.894531 63.292969 349.640625 L 78.039062 339.097656 C 84.574219 342.65625 91.410156 345.488281 98.546875 347.59375 L 101.496094 365.507812 C 101.570312 365.9375 101.675781 366.355469 101.820312 366.761719 C 101.964844 367.171875 102.144531 367.566406 102.359375 367.941406 C 102.574219 368.320312 102.820312 368.675781 103.097656 369.007812 C 103.375 369.339844 103.675781 369.648438 104.007812 369.929688 C 104.339844 370.207031 104.691406 370.457031 105.066406 370.675781 C 105.441406 370.894531 105.832031 371.078125 106.242188 371.226562 C 106.648438 371.375 107.066406 371.484375 107.492188 371.5625 C 107.917969 371.636719 108.347656 371.671875 108.78125 371.671875 L 148.09375 371.671875 C 148.527344 371.671875 148.957031 371.636719 149.386719 371.5625 C 149.8125 371.484375 150.230469 371.375 150.636719 371.226562 C 151.042969 371.078125 151.433594 370.894531 151.808594 370.675781 C 152.183594 370.457031 152.539062 370.207031 152.867188 369.929688 C 153.199219 369.648438 153.503906 369.339844 153.78125 369.007812 C 154.058594 368.675781 154.304688 368.320312 154.515625 367.941406 C 154.730469 367.566406 154.910156 367.171875 155.054688 366.761719 C 155.199219 366.355469 155.308594 365.9375 155.378906 365.507812 L 158.328125 347.59375 C 165.464844 345.488281 172.304688 342.65625 178.839844 339.097656 L 193.585938 349.640625 C 193.9375 349.894531 194.308594 350.113281 194.699219 350.300781 C 195.089844 350.484375 195.496094 350.636719 195.914062 350.75 C 196.328125 350.867188 196.753906 350.945312 197.183594 350.984375 C 197.617188 351.023438 198.046875 351.027344 198.476562 350.992188 C 198.910156 350.957031 199.332031 350.882812 199.753906 350.773438 C 200.171875 350.664062 200.578125 350.515625 200.96875 350.335938 C 201.363281 350.152344 201.734375 349.9375 202.089844 349.691406 C 202.445312 349.445312 202.777344 349.167969 203.082031 348.859375 L 230.894531 321.050781 C 231.199219 320.742188 231.476562 320.414062 231.722656 320.058594 C 231.972656 319.703125 232.1875 319.328125 232.367188 318.9375 C 232.550781 318.542969 232.695312 318.136719 232.804688 317.71875 C 232.914062 317.300781 232.988281 316.875 233.023438 316.445312 C 233.058594 316.015625 233.058594 315.582031 233.015625 315.152344 C 232.976562 314.722656 232.898438 314.296875 232.785156 313.878906 C 232.667969 313.460938 232.519531 313.058594 232.332031 312.667969 C 232.144531 312.277344 231.925781 311.90625 231.675781 311.554688 L 221.132812 296.808594 C 224.6875 290.269531 227.519531 283.433594 229.625 276.296875 L 247.542969 273.347656 C 247.96875 273.277344 248.386719 273.167969 248.796875 273.023438 C 249.203125 272.878906 249.597656 272.699219 249.972656 272.484375 C 250.351562 272.269531 250.707031 272.023438 251.039062 271.75 C 251.375 271.472656 251.679688 271.167969 251.960938 270.835938 C 252.242188 270.503906 252.488281 270.152344 252.707031 269.777344 C 252.925781 269.402344 253.109375 269.011719 253.257812 268.605469 C 253.40625 268.199219 253.519531 267.78125 253.59375 267.351562 C 253.667969 266.925781 253.707031 266.496094 253.707031 266.0625 L 253.707031 226.824219 C 253.707031 226.394531 253.671875 225.96875 253.601562 225.546875 C 253.527344 225.125 253.421875 224.710938 253.277344 224.308594 C 253.132812 223.90625 252.957031 223.519531 252.742188 223.144531 C 252.53125 222.773438 252.289062 222.421875 252.015625 222.089844 C 251.746094 221.761719 251.445312 221.457031 251.121094 221.179688 C 250.792969 220.902344 250.445312 220.652344 250.078125 220.433594 C 249.707031 220.21875 249.324219 220.035156 248.921875 219.882812 C 248.519531 219.734375 248.109375 219.617188 247.6875 219.539062 Z M 239.105469 259.898438 L 222.679688 262.640625 C 221.972656 262.765625 221.300781 262.984375 220.65625 263.304688 C 220.015625 263.625 219.433594 264.03125 218.910156 264.519531 C 218.386719 265.007812 217.941406 265.5625 217.578125 266.183594 C 217.21875 266.800781 216.953125 267.460938 216.78125 268.15625 C 214.585938 277.152344 211.085938 285.605469 206.28125 293.519531 C 205.90625 294.136719 205.628906 294.792969 205.449219 295.492188 C 205.265625 296.1875 205.1875 296.898438 205.214844 297.617188 C 205.238281 298.339844 205.367188 299.042969 205.601562 299.722656 C 205.832031 300.40625 206.160156 301.042969 206.578125 301.628906 L 216.265625 315.195312 L 197.230469 334.175781 L 183.664062 324.484375 C 183.074219 324.066406 182.441406 323.742188 181.757812 323.511719 C 181.074219 323.277344 180.371094 323.148438 179.652344 323.121094 C 178.929688 323.097656 178.222656 323.175781 177.523438 323.355469 C 176.824219 323.539062 176.167969 323.816406 175.550781 324.191406 C 167.636719 328.996094 159.183594 332.496094 150.1875 334.691406 C 149.492188 334.859375 148.835938 335.125 148.214844 335.488281 C 147.597656 335.851562 147.042969 336.292969 146.550781 336.816406 C 146.0625 337.339844 145.65625 337.925781 145.339844 338.566406 C 145.019531 339.207031 144.796875 339.882812 144.675781 340.589844 L 141.929688 357.074219 L 115.09375 357.074219 L 112.292969 340.648438 C 112.167969 339.941406 111.949219 339.265625 111.628906 338.625 C 111.308594 337.984375 110.902344 337.398438 110.414062 336.875 C 109.925781 336.351562 109.371094 335.910156 108.75 335.546875 C 108.132812 335.183594 107.472656 334.917969 106.777344 334.75 C 97.78125 332.554688 89.328125 329.054688 81.414062 324.25 C 80.796875 323.875 80.140625 323.597656 79.441406 323.414062 C 78.746094 323.234375 78.035156 323.15625 77.316406 323.179688 C 76.59375 323.207031 75.890625 323.335938 75.210938 323.570312 C 74.527344 323.800781 73.890625 324.125 73.304688 324.546875 L 59.738281 334.234375 L 40.820312 315.195312 L 50.507812 301.628906 C 50.925781 301.042969 51.25 300.40625 51.484375 299.722656 C 51.714844 299.042969 51.84375 298.339844 51.871094 297.617188 C 51.894531 296.898438 51.820312 296.1875 51.636719 295.492188 C 51.453125 294.792969 51.175781 294.136719 50.800781 293.519531 C 45.996094 285.605469 42.496094 277.152344 40.300781 268.15625 C 40.132812 267.460938 39.867188 266.800781 39.503906 266.183594 C 39.140625 265.5625 38.699219 265.007812 38.175781 264.519531 C 37.652344 264.03125 37.070312 263.625 36.425781 263.304688 C 35.785156 262.984375 35.109375 262.765625 34.402344 262.640625 L 17.917969 259.898438 L 17.917969 233.0625 L 34.34375 230.257812 C 35.050781 230.136719 35.726562 229.914062 36.367188 229.59375 C 37.007812 229.277344 37.59375 228.871094 38.117188 228.382812 C 38.640625 227.890625 39.082031 227.335938 39.445312 226.71875 C 39.808594 226.097656 40.074219 225.441406 40.242188 224.746094 C 42.4375 215.75 45.9375 207.296875 50.742188 199.382812 C 51.117188 198.765625 51.394531 198.109375 51.578125 197.410156 C 51.757812 196.710938 51.835938 196.003906 51.8125 195.28125 C 51.785156 194.5625 51.65625 193.859375 51.421875 193.175781 C 51.191406 192.492188 50.867188 191.859375 50.449219 191.269531 L 40.757812 177.703125 L 59.796875 158.785156 L 73.363281 168.472656 C 73.949219 168.890625 74.585938 169.21875 75.269531 169.449219 C 75.949219 169.683594 76.652344 169.8125 77.375 169.835938 C 78.09375 169.863281 78.804688 169.785156 79.5 169.605469 C 80.199219 169.421875 80.855469 169.144531 81.472656 168.769531 C 89.386719 163.964844 97.839844 160.464844 106.835938 158.269531 C 107.53125 158.101562 108.191406 157.832031 108.808594 157.472656 C 109.429688 157.109375 109.984375 156.667969 110.472656 156.144531 C 110.960938 155.617188 111.367188 155.035156 111.6875 154.394531 C 112.007812 153.753906 112.226562 153.078125 112.351562 152.371094 L 115.09375 135.886719 L 141.929688 135.886719 L 144.675781 152.3125 C 144.796875 153.019531 145.019531 153.691406 145.339844 154.335938 C 145.65625 154.976562 146.0625 155.558594 146.550781 156.082031 C 147.042969 156.609375 147.597656 157.050781 148.214844 157.414062 C 148.835938 157.773438 149.492188 158.039062 150.1875 158.210938 C 159.183594 160.40625 167.636719 163.90625 175.550781 168.710938 C 176.167969 169.085938 176.824219 169.363281 177.523438 169.546875 C 178.222656 169.726562 178.929688 169.804688 179.652344 169.777344 C 180.371094 169.753906 181.074219 169.625 181.757812 169.390625 C 182.441406 169.160156 183.074219 168.832031 183.664062 168.414062 L 197.230469 158.726562 L 216.207031 177.703125 L 206.519531 191.269531 C 206.101562 191.859375 205.773438 192.492188 205.542969 193.175781 C 205.308594 193.859375 205.179688 194.5625 205.15625 195.28125 C 205.128906 196.003906 205.207031 196.710938 205.386719 197.410156 C 205.570312 198.109375 205.847656 198.765625 206.222656 199.382812 C 211.027344 207.296875 214.527344 215.75 216.722656 224.746094 C 216.894531 225.441406 217.160156 226.097656 217.519531 226.71875 C 217.882812 227.335938 218.324219 227.890625 218.851562 228.382812 C 219.375 228.871094 219.957031 229.277344 220.597656 229.59375 C 221.242188 229.914062 221.914062 230.136719 222.621094 230.257812 L 239.046875 233.003906 Z M 239.105469 259.898438 " fill-opacity="1" fill-rule="nonzero"/></g><path fill="#ffffff" d="M 128.511719 180.125 C 127.425781 180.125 126.339844 180.148438 125.257812 180.203125 C 124.171875 180.257812 123.089844 180.335938 122.007812 180.441406 C 120.925781 180.550781 119.851562 180.683594 118.777344 180.839844 C 117.703125 181 116.632812 181.1875 115.566406 181.398438 C 114.5 181.609375 113.441406 181.847656 112.390625 182.113281 C 111.335938 182.375 110.289062 182.664062 109.25 182.980469 C 108.210938 183.296875 107.179688 183.636719 106.15625 184.003906 C 105.136719 184.367188 104.121094 184.757812 103.117188 185.175781 C 102.117188 185.589844 101.121094 186.03125 100.140625 186.496094 C 99.160156 186.957031 98.191406 187.445312 97.230469 187.957031 C 96.273438 188.46875 95.328125 189.003906 94.398438 189.5625 C 93.46875 190.121094 92.550781 190.703125 91.648438 191.304688 C 90.742188 191.910156 89.855469 192.535156 88.984375 193.183594 C 88.113281 193.828125 87.253906 194.496094 86.417969 195.183594 C 85.578125 195.875 84.753906 196.582031 83.949219 197.3125 C 83.144531 198.042969 82.359375 198.789062 81.589844 199.558594 C 80.824219 200.328125 80.074219 201.113281 79.34375 201.917969 C 78.617188 202.722656 77.90625 203.542969 77.21875 204.382812 C 76.527344 205.222656 75.859375 206.078125 75.214844 206.953125 C 74.566406 207.824219 73.941406 208.710938 73.339844 209.613281 C 72.734375 210.515625 72.15625 211.433594 71.597656 212.367188 C 71.039062 213.296875 70.503906 214.242188 69.992188 215.199219 C 69.480469 216.15625 68.992188 217.128906 68.527344 218.109375 C 68.0625 219.089844 67.621094 220.082031 67.207031 221.085938 C 66.792969 222.089844 66.402344 223.101562 66.035156 224.125 C 65.667969 225.148438 65.328125 226.179688 65.011719 227.21875 C 64.699219 228.257812 64.410156 229.304688 64.144531 230.355469 C 63.878906 231.410156 63.644531 232.46875 63.429688 233.535156 C 63.21875 234.597656 63.035156 235.667969 62.875 236.742188 C 62.714844 237.816406 62.582031 238.894531 62.476562 239.976562 C 62.367188 241.054688 62.289062 242.140625 62.234375 243.222656 C 62.183594 244.308594 62.15625 245.394531 62.15625 246.480469 C 62.15625 247.566406 62.183594 248.652344 62.234375 249.734375 C 62.289062 250.820312 62.367188 251.902344 62.476562 252.984375 C 62.582031 254.066406 62.714844 255.140625 62.875 256.214844 C 63.035156 257.289062 63.21875 258.359375 63.429688 259.425781 C 63.644531 260.492188 63.878906 261.550781 64.144531 262.601562 C 64.410156 263.65625 64.699219 264.703125 65.011719 265.742188 C 65.328125 266.78125 65.667969 267.8125 66.035156 268.835938 C 66.402344 269.855469 66.792969 270.871094 67.207031 271.875 C 67.621094 272.875 68.0625 273.871094 68.527344 274.851562 C 68.992188 275.832031 69.480469 276.800781 69.992188 277.761719 C 70.503906 278.71875 71.039062 279.664062 71.597656 280.59375 C 72.15625 281.527344 72.734375 282.441406 73.339844 283.347656 C 73.941406 284.25 74.566406 285.136719 75.214844 286.007812 C 75.859375 286.878906 76.527344 287.738281 77.21875 288.578125 C 77.90625 289.414062 78.617188 290.238281 79.34375 291.042969 C 80.074219 291.847656 80.824219 292.632812 81.589844 293.402344 C 82.359375 294.167969 83.144531 294.917969 83.949219 295.648438 C 84.753906 296.375 85.578125 297.085938 86.417969 297.773438 C 87.253906 298.464844 88.113281 299.132812 88.984375 299.777344 C 89.855469 300.425781 90.742188 301.050781 91.648438 301.652344 C 92.550781 302.257812 93.46875 302.835938 94.398438 303.394531 C 95.328125 303.953125 96.273438 304.488281 97.230469 305 C 98.191406 305.511719 99.160156 306 100.140625 306.464844 C 101.121094 306.929688 102.117188 307.371094 103.117188 307.785156 C 104.121094 308.199219 105.136719 308.59375 106.15625 308.957031 C 107.179688 309.324219 108.210938 309.664062 109.25 309.980469 C 110.289062 310.292969 111.335938 310.585938 112.390625 310.847656 C 113.441406 311.113281 114.5 311.351562 115.566406 311.5625 C 116.632812 311.773438 117.703125 311.960938 118.777344 312.117188 C 119.851562 312.277344 120.925781 312.410156 122.007812 312.515625 C 123.089844 312.625 124.171875 312.703125 125.257812 312.757812 C 126.339844 312.808594 127.425781 312.835938 128.511719 312.835938 C 129.597656 312.835938 130.683594 312.808594 131.769531 312.757812 C 132.851562 312.703125 133.9375 312.625 135.015625 312.515625 C 136.097656 312.410156 137.175781 312.277344 138.25 312.117188 C 139.324219 311.960938 140.394531 311.773438 141.457031 311.5625 C 142.523438 311.351562 143.582031 311.113281 144.636719 310.847656 C 145.6875 310.585938 146.734375 310.292969 147.773438 309.980469 C 148.8125 309.664062 149.84375 309.324219 150.867188 308.957031 C 151.890625 308.59375 152.902344 308.199219 153.90625 307.785156 C 154.910156 307.371094 155.902344 306.929688 156.882812 306.464844 C 157.867188 306 158.835938 305.511719 159.792969 305 C 160.75 304.488281 161.695312 303.953125 162.625 303.394531 C 163.558594 302.835938 164.476562 302.257812 165.378906 301.652344 C 166.28125 301.050781 167.167969 300.425781 168.042969 299.777344 C 168.914062 299.132812 169.769531 298.464844 170.609375 297.773438 C 171.449219 297.085938 172.269531 296.375 173.074219 295.648438 C 173.878906 294.917969 174.664062 294.167969 175.433594 293.402344 C 176.203125 292.632812 176.949219 291.847656 177.679688 291.042969 C 178.410156 290.238281 179.117188 289.414062 179.808594 288.578125 C 180.496094 287.738281 181.164062 286.878906 181.8125 286.007812 C 182.457031 285.136719 183.082031 284.25 183.6875 283.347656 C 184.289062 282.441406 184.871094 281.527344 185.429688 280.59375 C 185.988281 279.664062 186.523438 278.71875 187.035156 277.761719 C 187.546875 276.800781 188.035156 275.832031 188.5 274.851562 C 188.960938 273.871094 189.402344 272.875 189.816406 271.875 C 190.234375 270.871094 190.625 269.855469 190.988281 268.835938 C 191.355469 267.8125 191.695312 266.78125 192.011719 265.742188 C 192.328125 264.703125 192.617188 263.65625 192.878906 262.601562 C 193.144531 261.550781 193.382812 260.492188 193.59375 259.425781 C 193.804688 258.359375 193.992188 257.289062 194.152344 256.214844 C 194.308594 255.140625 194.441406 254.066406 194.550781 252.984375 C 194.65625 251.902344 194.734375 250.820312 194.789062 249.734375 C 194.84375 248.652344 194.871094 247.566406 194.871094 246.480469 C 194.867188 245.394531 194.839844 244.308594 194.785156 243.226562 C 194.730469 242.140625 194.652344 241.058594 194.542969 239.976562 C 194.433594 238.898438 194.300781 237.820312 194.140625 236.746094 C 193.980469 235.671875 193.792969 234.605469 193.582031 233.539062 C 193.371094 232.476562 193.128906 231.417969 192.867188 230.363281 C 192.601562 229.308594 192.3125 228.265625 191.996094 227.226562 C 191.679688 226.1875 191.339844 225.15625 190.972656 224.136719 C 190.605469 223.113281 190.214844 222.101562 189.796875 221.097656 C 189.382812 220.09375 188.941406 219.101562 188.476562 218.121094 C 188.011719 217.140625 187.523438 216.171875 187.011719 215.214844 C 186.5 214.257812 185.964844 213.3125 185.40625 212.382812 C 184.847656 211.449219 184.265625 210.535156 183.664062 209.632812 C 183.058594 208.730469 182.433594 207.84375 181.789062 206.96875 C 181.140625 206.097656 180.472656 205.242188 179.785156 204.402344 C 179.09375 203.5625 178.386719 202.742188 177.65625 201.9375 C 176.929688 201.132812 176.179688 200.347656 175.414062 199.582031 C 174.644531 198.8125 173.859375 198.0625 173.054688 197.335938 C 172.25 196.605469 171.429688 195.898438 170.589844 195.207031 C 169.75 194.519531 168.894531 193.851562 168.023438 193.203125 C 167.152344 192.558594 166.261719 191.933594 165.359375 191.328125 C 164.457031 190.726562 163.542969 190.144531 162.609375 189.585938 C 161.679688 189.027344 160.734375 188.492188 159.777344 187.980469 C 158.820312 187.46875 157.851562 186.980469 156.871094 186.515625 C 155.890625 186.050781 154.898438 185.609375 153.894531 185.195312 C 152.890625 184.777344 151.878906 184.386719 150.859375 184.019531 C 149.835938 183.652344 148.804688 183.3125 147.765625 182.996094 C 146.726562 182.679688 145.683594 182.390625 144.628906 182.125 C 143.578125 181.863281 142.515625 181.625 141.453125 181.410156 C 140.386719 181.199219 139.320312 181.011719 138.246094 180.851562 C 137.171875 180.691406 136.09375 180.558594 135.015625 180.449219 C 133.933594 180.34375 132.851562 180.261719 131.765625 180.207031 C 130.683594 180.152344 129.597656 180.125 128.511719 180.125 Z M 128.511719 298.089844 C 126.820312 298.089844 125.136719 298.007812 123.453125 297.84375 C 121.773438 297.675781 120.101562 297.429688 118.445312 297.097656 C 116.785156 296.769531 115.148438 296.359375 113.53125 295.867188 C 111.914062 295.378906 110.324219 294.808594 108.761719 294.160156 C 107.199219 293.515625 105.675781 292.792969 104.183594 291.996094 C 102.691406 291.199219 101.246094 290.332031 99.839844 289.394531 C 98.433594 288.453125 97.078125 287.449219 95.769531 286.375 C 94.464844 285.304688 93.214844 284.167969 92.019531 282.972656 C 90.824219 281.777344 89.6875 280.527344 88.617188 279.222656 C 87.542969 277.914062 86.539062 276.558594 85.601562 275.152344 C 84.660156 273.746094 83.792969 272.300781 82.996094 270.808594 C 82.199219 269.320312 81.476562 267.792969 80.832031 266.230469 C 80.183594 264.667969 79.613281 263.078125 79.125 261.460938 C 78.632812 259.84375 78.222656 258.207031 77.894531 256.546875 C 77.5625 254.890625 77.316406 253.222656 77.148438 251.539062 C 76.984375 249.855469 76.902344 248.171875 76.902344 246.480469 C 76.902344 244.789062 76.984375 243.101562 77.148438 241.421875 C 77.316406 239.738281 77.5625 238.070312 77.894531 236.410156 C 78.222656 234.753906 78.632812 233.117188 79.125 231.5 C 79.613281 229.878906 80.183594 228.292969 80.832031 226.730469 C 81.476562 225.167969 82.199219 223.640625 82.996094 222.152344 C 83.792969 220.660156 84.660156 219.210938 85.601562 217.804688 C 86.539062 216.402344 87.542969 215.046875 88.617188 213.738281 C 89.6875 212.433594 90.824219 211.179688 92.019531 209.984375 C 93.214844 208.789062 94.464844 207.65625 95.769531 206.585938 C 97.078125 205.511719 98.433594 204.507812 99.839844 203.566406 C 101.246094 202.628906 102.691406 201.761719 104.183594 200.964844 C 105.675781 200.167969 107.199219 199.445312 108.761719 198.796875 C 110.324219 198.152344 111.914062 197.582031 113.53125 197.089844 C 115.148438 196.601562 116.785156 196.191406 118.445312 195.859375 C 120.101562 195.53125 121.773438 195.285156 123.453125 195.117188 C 125.136719 194.953125 126.820312 194.871094 128.511719 194.871094 C 130.203125 194.871094 131.890625 194.953125 133.570312 195.117188 C 135.253906 195.285156 136.921875 195.53125 138.582031 195.859375 C 140.238281 196.191406 141.875 196.601562 143.496094 197.089844 C 145.113281 197.582031 146.703125 198.152344 148.261719 198.796875 C 149.824219 199.445312 151.351562 200.167969 152.839844 200.964844 C 154.332031 201.761719 155.78125 202.628906 157.1875 203.566406 C 158.589844 204.507812 159.949219 205.511719 161.253906 206.585938 C 162.5625 207.65625 163.8125 208.789062 165.007812 209.984375 C 166.203125 211.179688 167.335938 212.433594 168.40625 213.738281 C 169.480469 215.046875 170.484375 216.402344 171.425781 217.804688 C 172.363281 219.210938 173.230469 220.660156 174.027344 222.152344 C 174.824219 223.640625 175.546875 225.167969 176.195312 226.730469 C 176.839844 228.292969 177.410156 229.878906 177.902344 231.5 C 178.390625 233.117188 178.800781 234.753906 179.132812 236.410156 C 179.460938 238.070312 179.710938 239.738281 179.875 241.421875 C 180.039062 243.101562 180.125 244.789062 180.125 246.480469 C 180.125 248.171875 180.039062 249.855469 179.875 251.539062 C 179.710938 253.222656 179.460938 254.890625 179.132812 256.546875 C 178.800781 258.207031 178.390625 259.84375 177.902344 261.460938 C 177.410156 263.078125 176.839844 264.667969 176.195312 266.230469 C 175.546875 267.792969 174.824219 269.320312 174.027344 270.808594 C 173.230469 272.300781 172.363281 273.746094 171.425781 275.152344 C 170.484375 276.558594 169.480469 277.914062 168.40625 279.222656 C 167.335938 280.527344 166.203125 281.777344 165.007812 282.972656 C 163.8125 284.167969 162.5625 285.304688 161.253906 286.375 C 159.949219 287.449219 158.589844 288.453125 157.1875 289.394531 C 155.78125 290.332031 154.332031 291.199219 152.839844 291.996094 C 151.351562 292.792969 149.824219 293.515625 148.261719 294.160156 C 146.703125 294.808594 145.113281 295.378906 143.496094 295.867188 C 141.875 296.359375 140.238281 296.769531 138.582031 297.097656 C 136.921875 297.429688 135.253906 297.675781 133.570312 297.84375 C 131.890625 298.007812 130.203125 298.089844 128.511719 298.089844 Z M 128.511719 298.089844 " fill-opacity="1" fill-rule="nonzero"/><g clip-path="url(#6ea95b3de5)"><path fill="#ffffff" d="M 365.65625 64.707031 L 356.144531 63.128906 C 355.019531 59.625 353.613281 56.238281 351.929688 52.96875 L 357.546875 45.109375 C 357.796875 44.757812 358.015625 44.386719 358.203125 43.996094 C 358.390625 43.605469 358.539062 43.199219 358.65625 42.785156 C 358.769531 42.367188 358.847656 41.941406 358.886719 41.511719 C 358.929688 41.082031 358.929688 40.648438 358.894531 40.21875 C 358.859375 39.785156 358.789062 39.363281 358.675781 38.941406 C 358.566406 38.523438 358.421875 38.121094 358.238281 37.726562 C 358.058594 37.332031 357.84375 36.960938 357.59375 36.605469 C 357.347656 36.25 357.070312 35.917969 356.765625 35.613281 L 339.378906 18.226562 C 339.074219 17.921875 338.742188 17.644531 338.386719 17.398438 C 338.03125 17.148438 337.660156 16.933594 337.265625 16.753906 C 336.875 16.570312 336.46875 16.425781 336.050781 16.316406 C 335.628906 16.207031 335.207031 16.132812 334.773438 16.097656 C 334.34375 16.0625 333.910156 16.0625 333.480469 16.105469 C 333.050781 16.144531 332.625 16.222656 332.207031 16.335938 C 331.792969 16.453125 331.386719 16.601562 330.996094 16.789062 C 330.605469 16.976562 330.234375 17.195312 329.882812 17.445312 L 322.023438 23.0625 C 318.753906 21.378906 315.367188 19.972656 311.863281 18.847656 L 310.285156 9.335938 C 310.214844 8.90625 310.105469 8.488281 309.960938 8.082031 C 309.816406 7.671875 309.636719 7.28125 309.421875 6.902344 C 309.207031 6.527344 308.964844 6.171875 308.6875 5.835938 C 308.410156 5.503906 308.105469 5.195312 307.773438 4.917969 C 307.445312 4.636719 307.089844 4.386719 306.714844 4.167969 C 306.339844 3.953125 305.949219 3.769531 305.542969 3.621094 C 305.136719 3.472656 304.71875 3.359375 304.292969 3.285156 C 303.863281 3.207031 303.433594 3.171875 303 3.171875 L 278.433594 3.171875 C 278 3.171875 277.570312 3.207031 277.144531 3.285156 C 276.714844 3.359375 276.300781 3.472656 275.890625 3.621094 C 275.484375 3.769531 275.09375 3.953125 274.71875 4.167969 C 274.34375 4.386719 273.992188 4.636719 273.660156 4.917969 C 273.328125 5.195312 273.027344 5.503906 272.75 5.835938 C 272.472656 6.171875 272.226562 6.527344 272.011719 6.902344 C 271.796875 7.28125 271.617188 7.671875 271.472656 8.082031 C 271.328125 8.488281 271.222656 8.90625 271.148438 9.335938 L 269.570312 18.847656 C 266.070312 19.972656 262.683594 21.378906 259.414062 23.0625 L 251.550781 17.445312 C 251.199219 17.195312 250.828125 16.976562 250.4375 16.789062 C 250.046875 16.601562 249.644531 16.453125 249.226562 16.335938 C 248.808594 16.222656 248.386719 16.144531 247.953125 16.105469 C 247.523438 16.0625 247.09375 16.0625 246.660156 16.097656 C 246.230469 16.132812 245.804688 16.207031 245.386719 16.316406 C 244.96875 16.425781 244.5625 16.570312 244.167969 16.753906 C 243.777344 16.933594 243.402344 17.148438 243.046875 17.398438 C 242.691406 17.644531 242.363281 17.921875 242.054688 18.226562 L 224.671875 35.613281 C 224.363281 35.917969 224.089844 36.25 223.839844 36.605469 C 223.59375 36.960938 223.378906 37.332031 223.195312 37.726562 C 223.015625 38.121094 222.867188 38.523438 222.757812 38.941406 C 222.648438 39.363281 222.574219 39.785156 222.539062 40.21875 C 222.503906 40.648438 222.507812 41.082031 222.546875 41.511719 C 222.585938 41.941406 222.664062 42.367188 222.78125 42.785156 C 222.894531 43.199219 223.046875 43.605469 223.234375 43.996094 C 223.417969 44.386719 223.636719 44.757812 223.890625 45.109375 L 229.507812 52.96875 C 227.824219 56.238281 226.417969 59.625 225.289062 63.128906 L 215.777344 64.707031 C 215.351562 64.777344 214.933594 64.886719 214.523438 65.03125 C 214.117188 65.175781 213.722656 65.355469 213.347656 65.570312 C 212.96875 65.785156 212.613281 66.027344 212.28125 66.304688 C 211.945312 66.582031 211.640625 66.886719 211.359375 67.21875 C 211.078125 67.546875 210.832031 67.902344 210.613281 68.277344 C 210.394531 68.652344 210.210938 69.042969 210.0625 69.449219 C 209.914062 69.855469 209.800781 70.273438 209.726562 70.699219 C 209.652344 71.128906 209.613281 71.558594 209.613281 71.992188 L 209.613281 96.558594 C 209.613281 96.992188 209.652344 97.421875 209.726562 97.847656 C 209.800781 98.277344 209.914062 98.691406 210.0625 99.101562 C 210.210938 99.507812 210.394531 99.898438 210.613281 100.273438 C 210.832031 100.648438 211.078125 101 211.359375 101.332031 C 211.640625 101.664062 211.945312 101.964844 212.28125 102.242188 C 212.613281 102.519531 212.96875 102.765625 213.347656 102.980469 C 213.722656 103.195312 214.117188 103.375 214.523438 103.519531 C 214.933594 103.664062 215.351562 103.769531 215.777344 103.84375 L 225.289062 105.421875 C 226.417969 108.921875 227.824219 112.308594 229.507812 115.582031 L 223.890625 123.441406 C 223.636719 123.792969 223.417969 124.164062 223.234375 124.554688 C 223.046875 124.945312 222.894531 125.347656 222.78125 125.765625 C 222.664062 126.183594 222.585938 126.605469 222.546875 127.039062 C 222.507812 127.46875 222.503906 127.898438 222.539062 128.332031 C 222.574219 128.761719 222.648438 129.1875 222.757812 129.605469 C 222.867188 130.023438 223.015625 130.429688 223.195312 130.824219 C 223.378906 131.214844 223.59375 131.589844 223.839844 131.945312 C 224.089844 132.300781 224.363281 132.628906 224.671875 132.9375 L 242.054688 150.320312 C 242.363281 150.628906 242.691406 150.902344 243.046875 151.152344 C 243.402344 151.398438 243.777344 151.613281 244.167969 151.796875 C 244.5625 151.976562 244.96875 152.125 245.386719 152.234375 C 245.804688 152.34375 246.230469 152.417969 246.660156 152.453125 C 247.09375 152.488281 247.523438 152.484375 247.953125 152.445312 C 248.386719 152.40625 248.808594 152.328125 249.226562 152.210938 C 249.644531 152.097656 250.046875 151.945312 250.4375 151.761719 C 250.828125 151.574219 251.199219 151.355469 251.550781 151.101562 L 259.414062 145.484375 C 262.683594 147.167969 266.070312 148.574219 269.570312 149.703125 L 271.148438 159.214844 C 271.222656 159.640625 271.328125 160.058594 271.472656 160.46875 C 271.617188 160.875 271.796875 161.269531 272.011719 161.644531 C 272.226562 162.023438 272.472656 162.378906 272.75 162.710938 C 273.027344 163.046875 273.328125 163.351562 273.660156 163.632812 C 273.992188 163.914062 274.34375 164.160156 274.71875 164.378906 C 275.09375 164.597656 275.484375 164.78125 275.890625 164.929688 C 276.300781 165.078125 276.714844 165.191406 277.144531 165.265625 C 277.570312 165.339844 278 165.378906 278.433594 165.378906 L 303 165.378906 C 303.433594 165.378906 303.863281 165.339844 304.292969 165.265625 C 304.71875 165.191406 305.136719 165.078125 305.542969 164.929688 C 305.949219 164.78125 306.339844 164.597656 306.714844 164.378906 C 307.089844 164.160156 307.445312 163.914062 307.773438 163.632812 C 308.105469 163.351562 308.410156 163.046875 308.6875 162.710938 C 308.964844 162.378906 309.207031 162.023438 309.421875 161.644531 C 309.636719 161.269531 309.816406 160.875 309.960938 160.46875 C 310.105469 160.058594 310.214844 159.640625 310.285156 159.214844 L 311.863281 149.703125 C 315.367188 148.574219 318.753906 147.167969 322.023438 145.484375 L 329.882812 151.101562 C 330.234375 151.355469 330.605469 151.574219 330.996094 151.761719 C 331.386719 151.945312 331.792969 152.097656 332.207031 152.210938 C 332.625 152.328125 333.050781 152.40625 333.480469 152.445312 C 333.910156 152.484375 334.34375 152.488281 334.773438 152.453125 C 335.207031 152.417969 335.628906 152.34375 336.050781 152.234375 C 336.46875 152.125 336.875 151.976562 337.265625 151.796875 C 337.660156 151.613281 338.03125 151.398438 338.386719 151.152344 C 338.742188 150.902344 339.074219 150.628906 339.378906 150.320312 L 356.765625 132.9375 C 357.070312 132.628906 357.347656 132.300781 357.59375 131.945312 C 357.84375 131.589844 358.058594 131.214844 358.238281 130.824219 C 358.421875 130.429688 358.566406 130.023438 358.675781 129.605469 C 358.789062 129.1875 358.859375 128.761719 358.894531 128.332031 C 358.929688 127.898438 358.929688 127.46875 358.886719 127.039062 C 358.847656 126.605469 358.769531 126.183594 358.65625 125.765625 C 358.539062 125.347656 358.390625 124.945312 358.203125 124.554688 C 358.015625 124.164062 357.796875 123.792969 357.546875 123.441406 L 351.929688 115.582031 C 353.613281 112.308594 355.019531 108.921875 356.144531 105.421875 L 365.65625 103.84375 C 366.085938 103.769531 366.503906 103.664062 366.910156 103.519531 C 367.320312 103.375 367.710938 103.195312 368.089844 102.980469 C 368.464844 102.765625 368.820312 102.519531 369.15625 102.242188 C 369.488281 101.964844 369.796875 101.664062 370.074219 101.332031 C 370.355469 101 370.605469 100.648438 370.824219 100.273438 C 371.039062 99.898438 371.222656 99.507812 371.371094 99.101562 C 371.519531 98.691406 371.632812 98.277344 371.707031 97.847656 C 371.785156 97.421875 371.820312 96.992188 371.820312 96.558594 L 371.820312 71.992188 C 371.820312 71.558594 371.785156 71.128906 371.707031 70.699219 C 371.632812 70.273438 371.519531 69.855469 371.371094 69.449219 C 371.222656 69.042969 371.039062 68.652344 370.824219 68.277344 C 370.605469 67.902344 370.355469 67.546875 370.074219 67.21875 C 369.796875 66.886719 369.488281 66.582031 369.15625 66.304688 C 368.820312 66.027344 368.464844 65.785156 368.089844 65.570312 C 367.710938 65.355469 367.320312 65.175781 366.910156 65.03125 C 366.503906 64.886719 366.085938 64.777344 365.65625 64.707031 Z M 357.074219 90.320312 L 349.113281 91.648438 C 348.40625 91.769531 347.730469 91.992188 347.089844 92.3125 C 346.445312 92.632812 345.863281 93.035156 345.339844 93.527344 C 344.816406 94.015625 344.375 94.570312 344.011719 95.1875 C 343.648438 95.808594 343.382812 96.464844 343.214844 97.164062 C 341.890625 102.527344 339.792969 107.574219 336.917969 112.292969 C 336.542969 112.910156 336.265625 113.566406 336.085938 114.265625 C 335.90625 114.964844 335.828125 115.671875 335.855469 116.394531 C 335.882812 117.113281 336.011719 117.816406 336.246094 118.5 C 336.480469 119.179688 336.808594 119.816406 337.226562 120.402344 L 341.914062 126.964844 L 333.363281 135.515625 L 326.800781 130.828125 C 326.214844 130.40625 325.578125 130.082031 324.898438 129.847656 C 324.214844 129.613281 323.511719 129.484375 322.792969 129.457031 C 322.070312 129.429688 321.363281 129.503906 320.664062 129.6875 C 319.964844 129.867188 319.308594 130.144531 318.691406 130.519531 C 313.984375 133.375 308.953125 135.457031 303.605469 136.769531 C 302.910156 136.941406 302.25 137.207031 301.632812 137.570312 C 301.011719 137.929688 300.457031 138.375 299.96875 138.898438 C 299.480469 139.421875 299.074219 140.003906 298.753906 140.644531 C 298.433594 141.289062 298.214844 141.960938 298.089844 142.667969 L 296.761719 150.632812 L 284.671875 150.632812 L 283.34375 142.667969 C 283.222656 141.960938 283 141.289062 282.679688 140.644531 C 282.359375 140.003906 281.957031 139.421875 281.464844 138.898438 C 280.976562 138.375 280.421875 137.929688 279.804688 137.570312 C 279.183594 137.207031 278.527344 136.941406 277.828125 136.769531 C 272.480469 135.457031 267.453125 133.375 262.746094 130.519531 C 262.128906 130.144531 261.46875 129.867188 260.773438 129.6875 C 260.074219 129.503906 259.363281 129.429688 258.644531 129.457031 C 257.921875 129.484375 257.222656 129.613281 256.539062 129.847656 C 255.855469 130.082031 255.222656 130.40625 254.632812 130.828125 L 248.074219 135.515625 L 239.519531 126.964844 L 244.210938 120.402344 C 244.628906 119.816406 244.957031 119.179688 245.1875 118.5 C 245.421875 117.816406 245.554688 117.113281 245.582031 116.394531 C 245.609375 115.671875 245.53125 114.964844 245.351562 114.265625 C 245.167969 113.566406 244.890625 112.910156 244.519531 112.292969 C 241.664062 107.582031 239.578125 102.554688 238.265625 97.207031 C 238.097656 96.511719 237.832031 95.851562 237.46875 95.234375 C 237.105469 94.613281 236.664062 94.058594 236.140625 93.570312 C 235.617188 93.082031 235.03125 92.675781 234.390625 92.355469 C 233.75 92.035156 233.074219 91.816406 232.367188 91.691406 L 224.40625 90.363281 L 224.40625 78.230469 L 232.367188 76.902344 C 233.074219 76.777344 233.75 76.558594 234.390625 76.238281 C 235.03125 75.917969 235.617188 75.511719 236.140625 75.023438 C 236.664062 74.535156 237.105469 73.980469 237.46875 73.359375 C 237.832031 72.742188 238.097656 72.082031 238.265625 71.386719 C 239.574219 66.023438 241.660156 60.980469 244.519531 56.257812 C 244.890625 55.640625 245.167969 54.984375 245.351562 54.285156 C 245.53125 53.585938 245.609375 52.875 245.582031 52.15625 C 245.554688 51.433594 245.421875 50.734375 245.1875 50.050781 C 244.957031 49.367188 244.628906 48.734375 244.210938 48.148438 L 239.519531 41.585938 L 248.074219 33.03125 L 254.632812 37.722656 C 255.222656 38.140625 255.855469 38.46875 256.539062 38.703125 C 257.21875 38.933594 257.921875 39.066406 258.644531 39.09375 C 259.363281 39.121094 260.074219 39.042969 260.773438 38.863281 C 261.46875 38.683594 262.128906 38.40625 262.746094 38.03125 C 267.453125 35.175781 272.480469 33.089844 277.828125 31.777344 C 278.527344 31.609375 279.183594 31.34375 279.804688 30.980469 C 280.421875 30.617188 280.976562 30.175781 281.464844 29.652344 C 281.957031 29.128906 282.359375 28.546875 282.679688 27.902344 C 283 27.261719 283.222656 26.585938 283.34375 25.878906 L 284.671875 17.917969 L 296.761719 17.917969 L 298.089844 25.878906 C 298.214844 26.585938 298.433594 27.261719 298.753906 27.902344 C 299.074219 28.546875 299.480469 29.128906 299.96875 29.652344 C 300.457031 30.175781 301.011719 30.617188 301.632812 30.980469 C 302.25 31.34375 302.910156 31.609375 303.605469 31.777344 C 308.953125 33.089844 313.984375 35.175781 318.691406 38.03125 C 319.308594 38.40625 319.964844 38.683594 320.664062 38.863281 C 321.363281 39.042969 322.070312 39.121094 322.792969 39.09375 C 323.511719 39.066406 324.214844 38.933594 324.898438 38.703125 C 325.578125 38.46875 326.214844 38.140625 326.800781 37.722656 L 333.363281 33.03125 L 341.914062 41.585938 L 337.226562 48.148438 C 336.808594 48.734375 336.480469 49.367188 336.246094 50.050781 C 336.011719 50.734375 335.882812 51.433594 335.855469 52.15625 C 335.828125 52.875 335.90625 53.585938 336.085938 54.285156 C 336.265625 54.984375 336.542969 55.640625 336.917969 56.257812 C 339.773438 60.964844 341.855469 65.992188 343.167969 71.34375 C 343.339844 72.039062 343.605469 72.695312 343.96875 73.316406 C 344.328125 73.933594 344.773438 74.488281 345.296875 74.980469 C 345.820312 75.46875 346.402344 75.875 347.042969 76.195312 C 347.6875 76.511719 348.359375 76.734375 349.066406 76.859375 L 357.03125 78.183594 Z M 357.074219 90.320312 " fill-opacity="1" fill-rule="nonzero"/></g><path fill="#ffffff" d="M 290.71875 47.410156 C 289.511719 47.410156 288.304688 47.46875 287.105469 47.585938 C 285.902344 47.707031 284.710938 47.882812 283.527344 48.117188 C 282.339844 48.355469 281.171875 48.648438 280.015625 48.996094 C 278.859375 49.347656 277.726562 49.753906 276.609375 50.214844 C 275.496094 50.679688 274.40625 51.195312 273.339844 51.761719 C 272.273438 52.332031 271.242188 52.953125 270.238281 53.621094 C 269.234375 54.292969 268.265625 55.011719 267.332031 55.777344 C 266.398438 56.542969 265.503906 57.355469 264.648438 58.207031 C 263.796875 59.0625 262.988281 59.953125 262.222656 60.886719 C 261.453125 61.820312 260.738281 62.789062 260.066406 63.792969 C 259.394531 64.796875 258.773438 65.832031 258.207031 66.898438 C 257.636719 67.960938 257.121094 69.050781 256.660156 70.167969 C 256.195312 71.28125 255.789062 72.417969 255.441406 73.574219 C 255.089844 74.730469 254.796875 75.898438 254.5625 77.082031 C 254.324219 78.265625 254.148438 79.460938 254.03125 80.660156 C 253.914062 81.863281 253.851562 83.066406 253.851562 84.273438 C 253.851562 85.480469 253.914062 86.6875 254.03125 87.886719 C 254.148438 89.089844 254.324219 90.28125 254.5625 91.464844 C 254.796875 92.652344 255.089844 93.820312 255.441406 94.976562 C 255.789062 96.132812 256.195312 97.265625 256.660156 98.382812 C 257.121094 99.496094 257.636719 100.585938 258.207031 101.652344 C 258.773438 102.71875 259.394531 103.75 260.066406 104.753906 C 260.738281 105.757812 261.453125 106.726562 262.222656 107.660156 C 262.988281 108.59375 263.796875 109.488281 264.648438 110.34375 C 265.503906 111.195312 266.398438 112.003906 267.332031 112.773438 C 268.265625 113.539062 269.234375 114.253906 270.238281 114.925781 C 271.242188 115.597656 272.273438 116.21875 273.339844 116.785156 C 274.40625 117.355469 275.496094 117.871094 276.609375 118.332031 C 277.726562 118.796875 278.859375 119.203125 280.015625 119.550781 C 281.171875 119.902344 282.339844 120.195312 283.527344 120.429688 C 284.710938 120.667969 285.902344 120.84375 287.105469 120.960938 C 288.304688 121.082031 289.511719 121.140625 290.71875 121.140625 C 291.925781 121.140625 293.128906 121.082031 294.332031 120.960938 C 295.53125 120.84375 296.726562 120.667969 297.910156 120.429688 C 299.09375 120.195312 300.265625 119.902344 301.417969 119.550781 C 302.574219 119.203125 303.710938 118.796875 304.824219 118.332031 C 305.941406 117.871094 307.03125 117.355469 308.097656 116.785156 C 309.160156 116.21875 310.195312 115.597656 311.199219 114.925781 C 312.203125 114.253906 313.171875 113.539062 314.105469 112.773438 C 315.039062 112.003906 315.929688 111.195312 316.785156 110.34375 C 317.640625 109.488281 318.449219 108.59375 319.214844 107.660156 C 319.980469 106.726562 320.699219 105.757812 321.371094 104.753906 C 322.039062 103.75 322.660156 102.71875 323.230469 101.652344 C 323.796875 100.585938 324.3125 99.496094 324.777344 98.382812 C 325.238281 97.265625 325.644531 96.132812 325.996094 94.976562 C 326.34375 93.820312 326.640625 92.652344 326.875 91.464844 C 327.109375 90.28125 327.285156 89.089844 327.40625 87.886719 C 327.523438 86.6875 327.582031 85.480469 327.582031 84.273438 C 327.582031 83.066406 327.523438 81.863281 327.40625 80.660156 C 327.285156 79.460938 327.109375 78.265625 326.875 77.082031 C 326.640625 75.898438 326.347656 74.730469 325.996094 73.574219 C 325.644531 72.417969 325.238281 71.28125 324.777344 70.167969 C 324.3125 69.050781 323.796875 67.960938 323.230469 66.898438 C 322.660156 65.832031 322.039062 64.796875 321.371094 63.792969 C 320.699219 62.789062 319.980469 61.820312 319.214844 60.886719 C 318.449219 59.953125 317.640625 59.0625 316.785156 58.207031 C 315.929688 57.355469 315.039062 56.542969 314.105469 55.777344 C 313.171875 55.011719 312.203125 54.292969 311.199219 53.621094 C 310.195312 52.953125 309.160156 52.332031 308.097656 51.761719 C 307.03125 51.195312 305.941406 50.679688 304.824219 50.214844 C 303.710938 49.753906 302.574219 49.347656 301.417969 48.996094 C 300.265625 48.648438 299.09375 48.355469 297.910156 48.117188 C 296.726562 47.882812 295.53125 47.707031 294.332031 47.585938 C 293.128906 47.46875 291.925781 47.410156 290.71875 47.410156 Z M 290.71875 106.394531 C 289.992188 106.394531 289.269531 106.359375 288.550781 106.285156 C 287.828125 106.214844 287.113281 106.109375 286.402344 105.96875 C 285.691406 105.828125 284.988281 105.652344 284.296875 105.441406 C 283.605469 105.230469 282.921875 104.988281 282.253906 104.710938 C 281.582031 104.433594 280.929688 104.125 280.289062 103.78125 C 279.652344 103.441406 279.03125 103.066406 278.429688 102.664062 C 277.828125 102.261719 277.246094 101.832031 276.6875 101.371094 C 276.125 100.914062 275.589844 100.425781 275.078125 99.914062 C 274.566406 99.402344 274.078125 98.867188 273.621094 98.308594 C 273.160156 97.746094 272.730469 97.164062 272.328125 96.5625 C 271.925781 95.960938 271.550781 95.339844 271.210938 94.703125 C 270.867188 94.0625 270.558594 93.410156 270.28125 92.738281 C 270.003906 92.070312 269.761719 91.386719 269.550781 90.695312 C 269.339844 90.003906 269.164062 89.300781 269.023438 88.589844 C 268.882812 87.878906 268.777344 87.164062 268.707031 86.441406 C 268.632812 85.722656 268.597656 85 268.597656 84.273438 C 268.597656 83.550781 268.632812 82.828125 268.707031 82.105469 C 268.777344 81.386719 268.882812 80.671875 269.023438 79.960938 C 269.164062 79.25 269.339844 78.546875 269.550781 77.855469 C 269.761719 77.160156 270.003906 76.480469 270.28125 75.808594 C 270.558594 75.140625 270.867188 74.488281 271.210938 73.847656 C 271.550781 73.210938 271.925781 72.589844 272.328125 71.984375 C 272.730469 71.382812 273.160156 70.800781 273.621094 70.242188 C 274.078125 69.683594 274.566406 69.144531 275.078125 68.632812 C 275.589844 68.121094 276.125 67.636719 276.6875 67.175781 C 277.246094 66.71875 277.828125 66.285156 278.429688 65.882812 C 279.03125 65.480469 279.652344 65.109375 280.289062 64.765625 C 280.929688 64.425781 281.582031 64.117188 282.253906 63.839844 C 282.921875 63.5625 283.605469 63.320312 284.296875 63.109375 C 284.988281 62.898438 285.691406 62.722656 286.402344 62.582031 C 287.113281 62.4375 287.828125 62.332031 288.550781 62.261719 C 289.269531 62.191406 289.992188 62.15625 290.71875 62.15625 C 291.441406 62.15625 292.164062 62.191406 292.886719 62.261719 C 293.605469 62.332031 294.324219 62.4375 295.03125 62.582031 C 295.742188 62.722656 296.445312 62.898438 297.136719 63.109375 C 297.832031 63.320312 298.511719 63.5625 299.183594 63.839844 C 299.851562 64.117188 300.503906 64.425781 301.144531 64.765625 C 301.785156 65.109375 302.402344 65.480469 303.007812 65.882812 C 303.609375 66.285156 304.191406 66.71875 304.75 67.175781 C 305.308594 67.636719 305.847656 68.121094 306.359375 68.632812 C 306.871094 69.144531 307.355469 69.683594 307.816406 70.242188 C 308.277344 70.800781 308.707031 71.382812 309.109375 71.984375 C 309.511719 72.589844 309.882812 73.210938 310.226562 73.847656 C 310.566406 74.488281 310.875 75.140625 311.152344 75.808594 C 311.429688 76.480469 311.675781 77.160156 311.882812 77.855469 C 312.09375 78.546875 312.269531 79.25 312.410156 79.960938 C 312.554688 80.671875 312.660156 81.386719 312.730469 82.105469 C 312.800781 82.828125 312.835938 83.550781 312.835938 84.273438 C 312.835938 85 312.800781 85.722656 312.730469 86.441406 C 312.660156 87.164062 312.554688 87.878906 312.410156 88.589844 C 312.269531 89.300781 312.09375 90.003906 311.882812 90.695312 C 311.675781 91.386719 311.429688 92.070312 311.152344 92.738281 C 310.875 93.410156 310.566406 94.0625 310.226562 94.703125 C 309.882812 95.339844 309.511719 95.960938 309.109375 96.5625 C 308.707031 97.164062 308.277344 97.746094 307.816406 98.308594 C 307.355469 98.867188 306.871094 99.402344 306.359375 99.914062 C 305.847656 100.425781 305.308594 100.914062 304.75 101.371094 C 304.191406 101.832031 303.609375 102.261719 303.007812 102.664062 C 302.402344 103.066406 301.785156 103.441406 301.144531 103.78125 C 300.503906 104.125 299.851562 104.433594 299.183594 104.710938 C 298.511719 104.988281 297.832031 105.230469 297.136719 105.441406 C 296.445312 105.652344 295.742188 105.828125 295.03125 105.96875 C 294.324219 106.109375 293.605469 106.214844 292.886719 106.285156 C 292.164062 106.359375 291.441406 106.394531 290.71875 106.394531 Z M 290.71875 106.394531 " fill-opacity="1" fill-rule="nonzero"/><g clip-path="url(#f34bea1229)"><g clip-path="url(#a5f34c2907)"><g transform="matrix(1, 0, 0, 1, 214, 90)"><g clip-path="url(#94fb4f530d)"><g clip-path="url(#073a8da4bf)"><g clip-path="url(#0b53c07287)"><path fill="#ffffff" d="M 0.648438 0.21875 L 4.464844 0.21875 L 4.464844 4.035156 L 0.648438 4.035156 Z M 0.648438 0.21875 " fill-opacity="1" fill-rule="nonzero"/></g></g></g></g></g></g></svg>